<?xml version="1.0" standalone="no"?>
<!DOCTYPE svg PUBLIC "-//W3C//DTD SVG 20010904//EN"
 "http://www.w3.org/TR/2001/REC-SVG-20010904/DTD/svg10.dtd">
<svg version="1.0" xmlns="http://www.w3.org/2000/svg"
 width="419.000000pt" height="419.000000pt" viewBox="0 0 419.000000 419.000000"
 preserveAspectRatio="xMidYMid meet">
<metadata>
Created by potrace 1.14, written by Peter Selinger 2001-2017
</metadata>
<g transform="translate(0.000000,419.000000) scale(0.100000,-0.100000)"
fill="#000000" stroke="none">
<path d="M3462 4004 c2 -5 -9 -25 -25 -45 -15 -20 -27 -39 -27 -42 0 -4 -8
-16 -17 -27 -10 -11 -17 -23 -15 -26 2 -3 -5 -12 -15 -19 -10 -7 -18 -17 -19
-22 -2 -20 -17 -42 -25 -37 -5 3 -6 -3 -2 -13 3 -10 3 -15 -2 -11 -7 7 -15 -4
-52 -74 -8 -16 -19 -28 -24 -28 -5 0 -9 -7 -9 -15 0 -8 -5 -15 -11 -15 -6 0
-9 -7 -5 -15 3 -8 1 -14 -3 -12 -5 1 -8 -2 -7 -6 0 -5 -7 -13 -17 -18 -9 -6
-15 -14 -12 -19 3 -5 -4 -15 -15 -23 -11 -7 -17 -16 -14 -20 3 -3 -4 -16 -15
-29 -35 -39 -46 -54 -49 -69 -2 -8 -8 -16 -13 -18 -11 -3 -33 -51 -31 -63 2
-7 -13 -12 -30 -9 -4 0 -5 -6 -2 -14 4 -8 1 -15 -5 -15 -6 0 -11 -8 -11 -18 0
-10 -9 -25 -20 -35 -12 -10 -18 -22 -15 -27 3 -6 0 -10 -8 -10 -8 0 -18 -11
-21 -25 -4 -14 -10 -23 -15 -21 -7 5 -22 -28 -20 -43 0 -2 -3 -7 -8 -10 -16
-11 -55 -71 -46 -71 4 0 0 -5 -10 -11 -9 -6 -15 -14 -12 -20 4 -5 2 -9 -3 -9
-5 0 -20 -15 -33 -34 -13 -19 -26 -33 -30 -30 -4 2 -6 -4 -5 -14 0 -9 -5 -16
-11 -15 -12 3 -17 -10 -14 -30 1 -5 -2 -6 -6 -4 -5 3 -33 -17 -62 -43 -30 -27
-58 -47 -63 -44 -4 3 -8 -2 -8 -10 0 -8 -5 -18 -12 -22 -7 -5 -9 -2 -4 7 4 8
-4 2 -18 -13 -14 -16 -30 -28 -36 -28 -5 0 -10 -7 -10 -16 0 -8 -4 -12 -10 -9
-5 3 -10 2 -10 -4 0 -5 -6 -16 -13 -23 -22 -21 -70 -102 -70 -115 0 -7 -4 -13
-8 -13 -5 0 -13 -18 -19 -40 -6 -21 -18 -46 -26 -55 -9 -9 -14 -19 -10 -22 3
-4 -1 -17 -9 -30 -9 -13 -12 -23 -8 -23 5 0 2 -4 -4 -8 -7 -5 -14 -20 -15 -34
-1 -15 -6 -24 -10 -22 -4 3 -9 0 -9 -5 -1 -6 -3 -15 -4 -21 -1 -5 -3 -15 -4
-21 0 -5 -6 -7 -11 -4 -6 4 -10 3 -8 -2 4 -16 -14 -73 -23 -73 -5 0 -8 -3 -7
-7 4 -15 -15 -58 -31 -71 -9 -8 -10 -11 -3 -7 22 11 13 -5 -23 -39 -19 -18
-31 -36 -28 -40 4 -3 -1 -6 -10 -6 -10 0 -17 -4 -17 -10 0 -5 -6 -10 -13 -10
-7 0 -18 -5 -25 -12 -6 -6 -22 -13 -34 -15 -12 -2 -25 -7 -28 -12 -7 -11 -113
-10 -121 1 -3 4 -17 9 -32 10 -15 1 -27 6 -27 10 0 4 -12 8 -26 8 -14 0 -23 4
-20 8 2 4 -24 8 -60 7 -36 0 -64 4 -64 10 0 6 -5 3 -10 -5 -5 -8 -10 -11 -10
-6 0 5 -7 3 -15 -4 -12 -10 -15 -10 -15 0 0 9 -3 10 -13 1 -8 -6 -17 -8 -20
-4 -4 3 -7 2 -7 -4 0 -10 -10 -13 -60 -16 -16 -1 -30 -5 -30 -8 0 -7 -13 -9
-67 -12 -22 -1 -39 -6 -36 -10 2 -4 -7 -6 -22 -3 -21 4 -25 2 -21 -10 3 -9 6
-19 6 -22 0 -4 5 0 10 8 6 10 10 11 10 3 0 -7 7 -13 15 -13 8 0 15 -4 15 -10
0 -5 7 -7 15 -4 8 4 15 2 15 -4 0 -5 9 -12 21 -15 12 -3 18 -10 15 -15 -3 -5
3 -12 14 -15 11 -3 20 -12 20 -21 0 -9 5 -16 12 -16 6 0 9 -3 5 -6 -3 -4 -1
-12 6 -20 29 -32 37 -44 32 -44 -7 0 8 -18 61 -76 22 -24 39 -46 36 -49 -3 -3
2 -5 10 -5 19 0 18 -34 0 -36 -7 -1 -15 -3 -19 -4 -5 -1 -12 -2 -16 -1 -5 1
-6 -3 -3 -8 3 -5 -2 -15 -11 -22 -14 -12 -16 -12 -9 1 5 8 -2 4 -15 -10 -13
-14 -31 -26 -39 -28 -8 -2 -24 -11 -35 -21 -26 -23 -68 -48 -77 -47 -4 1 -14
-8 -22 -19 -9 -11 -16 -16 -16 -11 0 5 -8 -1 -19 -12 -10 -12 -21 -19 -24 -15
-4 3 -9 -2 -13 -11 -3 -9 -11 -16 -16 -16 -5 0 -22 -9 -38 -20 -15 -11 -30
-16 -34 -13 -4 4 -4 -1 0 -12 6 -15 4 -17 -10 -12 -9 4 -15 3 -12 -2 3 -5 -7
-17 -22 -27 -15 -10 -46 -36 -69 -60 -23 -23 -44 -40 -47 -37 -2 2 -7 -5 -11
-16 -3 -12 -11 -19 -16 -16 -5 4 -9 3 -9 -2 0 -15 -47 -63 -55 -55 -5 4 -5 1
-1 -6 4 -7 1 -15 -8 -18 -9 -3 -16 -11 -16 -18 0 -6 -8 -19 -18 -28 -24 -24
-37 -40 -45 -60 -3 -10 -11 -18 -17 -18 -5 0 -10 -6 -10 -14 0 -8 -4 -16 -9
-18 -5 -1 -11 -10 -13 -18 -2 -8 -13 -25 -26 -37 -12 -12 -22 -24 -21 -25 3
-8 -25 -58 -33 -58 -4 0 -8 -7 -8 -15 0 -8 -4 -15 -10 -15 -5 0 -10 -5 -10
-11 0 -12 -60 -103 -72 -107 -4 -2 -8 -10 -8 -18 0 -8 -7 -17 -15 -20 -8 -4
-12 -10 -9 -15 3 -5 -2 -12 -10 -15 -9 -3 -16 -11 -16 -16 0 -6 -13 -24 -30
-39 -16 -16 -25 -29 -20 -29 6 0 -3 -13 -20 -30 -16 -16 -30 -34 -30 -40 0 -5
-8 -10 -17 -11 -11 0 -13 -3 -5 -6 8 -3 4 -11 -13 -25 -14 -11 -25 -24 -25
-29 0 -6 -7 -17 -15 -26 -8 -8 -12 -19 -9 -25 4 -6 10 -5 15 3 5 8 9 10 9 5 0
-5 6 -4 13 1 6 6 36 16 65 23 28 6 52 15 52 20 0 4 28 8 62 9 33 1 65 4 70 7
4 3 8 0 8 -7 0 -10 3 -10 11 -2 6 6 18 9 26 6 9 -3 26 7 43 25 27 30 55 41
110 45 15 1 34 15 49 35 13 17 27 32 30 33 3 0 15 3 26 5 11 3 26 6 33 6 6 1
12 5 12 8 0 6 40 16 87 21 5 1 16 5 26 10 11 7 17 6 17 -1 0 -7 6 -8 19 0 11
5 22 6 25 2 11 -19 116 7 116 28 0 6 4 9 8 6 5 -3 15 3 24 12 16 18 29 27 113
90 28 20 52 40 53 45 2 4 10 7 17 7 7 0 16 7 19 16 3 8 10 12 16 9 5 -3 10 1
10 10 0 9 4 13 10 10 5 -3 10 -1 10 6 0 7 3 10 6 7 3 -3 17 5 31 18 14 13 28
22 31 19 3 -2 11 3 19 13 10 11 12 12 8 2 -4 -8 1 -6 10 5 9 11 21 19 26 18 5
-2 9 3 9 11 0 8 7 17 16 20 8 3 12 10 9 16 -3 5 0 10 8 10 7 0 20 11 27 25 7
14 16 25 20 25 3 0 21 13 39 29 19 17 46 33 62 36 15 4 33 13 40 21 10 12 14
12 20 2 7 -10 9 -9 9 5 0 9 7 17 15 17 8 0 15 5 15 10 0 6 5 10 10 10 6 0 19
8 29 17 37 33 50 43 61 43 5 0 10 5 10 10 0 6 8 14 18 17 9 4 27 17 39 30 12
13 24 22 26 21 5 -3 61 37 83 60 7 6 15 12 19 12 3 0 15 9 27 20 21 20 42 21
67 6 10 -7 12 -6 6 4 -6 9 -4 11 6 5 19 -12 49 -14 55 -3 3 4 11 5 17 1 16
-10 77 -11 77 -1 0 5 9 4 20 -2 11 -6 20 -7 20 -2 0 5 16 8 35 7 19 -1 35 3
35 9 0 6 5 3 11 -6 5 -10 17 -18 24 -18 8 0 15 -6 15 -13 0 -7 9 -19 20 -27
11 -8 20 -20 20 -28 0 -7 5 -10 10 -7 6 3 10 -1 10 -9 0 -9 7 -16 16 -16 8 0
12 -4 9 -10 -3 -5 -1 -10 5 -10 6 0 21 -10 34 -23 12 -12 31 -23 42 -25 28 -4
38 -7 52 -15 6 -5 17 -5 22 -2 6 3 10 2 10 -2 0 -5 8 -10 18 -11 52 -5 79 -10
95 -17 9 -4 23 -3 30 2 6 5 24 9 40 8 15 0 27 2 27 6 0 6 23 5 40 -1 3 -1 9
-2 14 -1 4 1 14 -4 22 -10 8 -6 14 -8 14 -3 0 5 5 2 10 -6 7 -11 10 -11 10 -2
0 9 5 10 19 2 18 -9 19 -7 18 22 -1 18 3 33 8 33 6 0 16 4 24 9 9 6 12 5 7 -2
-4 -7 4 -10 23 -10 27 1 36 17 19 34 -4 3 -4 12 -1 20 3 8 -1 14 -8 14 -11 0
-11 3 1 10 8 5 10 10 4 10 -6 0 -11 12 -11 26 0 17 4 24 13 20 7 -3 16 -1 20
5 3 6 10 6 17 1 15 -12 87 -12 87 0 0 4 -5 8 -10 8 -15 0 -60 46 -60 61 0 7 3
9 7 6 3 -4 13 -1 21 6 13 10 14 9 7 -2 -6 -11 -3 -11 14 2 13 8 29 13 36 11 7
-3 16 -1 19 5 4 6 13 8 21 4 8 -3 15 0 15 6 0 6 3 10 8 10 34 -6 41 21 14 50
-11 12 -11 15 0 22 9 6 9 9 1 9 -6 0 -11 9 -10 19 0 11 6 19 12 18 5 -1 9 3 8
9 -1 7 6 10 16 7 22 -5 38 14 24 28 -6 6 -20 11 -32 12 -11 1 -21 7 -21 14 0
6 -5 15 -12 19 -7 5 -8 3 -3 -6 6 -9 4 -11 -5 -5 -10 6 -10 11 3 20 9 7 14 15
10 19 -4 4 -2 11 5 15 7 4 10 15 6 25 -5 14 -9 14 -22 4 -8 -7 -16 -11 -18 -8
-1 3 -6 1 -11 -4 -5 -5 -2 -6 6 -1 10 6 12 4 7 -4 -4 -6 -24 -11 -44 -11 -55
1 -95 -4 -111 -14 -10 -7 -12 -6 -6 3 6 10 3 11 -12 2 -11 -6 -23 -7 -27 -4
-3 3 -6 0 -6 -8 0 -11 -2 -11 -10 1 -6 10 -10 11 -10 3 0 -7 -9 -13 -20 -13
-11 0 -20 -3 -20 -7 0 -5 -18 -8 -40 -8 -22 0 -40 2 -40 5 0 3 -18 5 -40 5
-22 0 -40 2 -40 5 0 3 -8 6 -17 7 -70 3 -103 8 -103 17 0 6 -4 5 -9 -3 -5 -8
-11 -9 -15 -3 -3 6 -17 9 -31 7 -14 -1 -25 1 -25 6 0 5 -7 6 -15 3 -9 -4 -18
1 -21 11 -4 9 -13 14 -20 11 -8 -3 -14 -1 -14 3 0 5 -20 21 -45 35 -51 30 -56
41 -20 50 13 3 29 15 35 26 6 11 16 17 25 14 8 -4 15 -1 15 6 0 6 4 9 9 6 5
-3 12 1 15 10 3 8 10 12 16 9 5 -3 10 1 10 9 0 9 3 15 8 15 19 -3 33 2 27 11
-6 9 8 14 28 11 4 0 6 2 5 6 -2 5 0 8 3 8 4 0 22 19 40 42 19 23 40 42 47 42
7 1 10 6 7 11 -3 6 -1 10 4 10 6 0 11 5 11 11 0 7 10 20 22 30 11 11 18 19 14
19 -4 0 1 9 11 19 10 11 29 42 42 68 14 26 32 57 40 67 9 11 10 16 4 12 -7 -4
-13 -2 -13 3 0 6 5 11 10 11 6 0 10 7 10 15 0 8 4 15 9 15 6 0 8 9 6 20 -2 11
4 27 13 37 9 9 16 18 15 20 -2 2 -2 5 -2 8 8 30 22 59 36 73 7 7 13 20 13 27
0 7 12 23 26 34 15 12 23 21 19 21 -4 0 14 20 39 45 26 25 52 45 57 45 6 0 7
5 4 10 -3 6 1 13 9 16 9 3 14 10 11 14 -3 4 2 11 11 14 8 3 13 10 9 15 -3 6 1
13 9 18 8 4 15 10 16 13 6 32 14 50 22 50 6 0 8 7 4 15 -3 8 -1 15 5 15 6 0 7
5 4 10 -3 6 -1 10 5 10 7 0 10 7 6 15 -3 8 -2 15 3 15 8 0 19 27 17 40 -1 3
10 20 24 39 13 19 17 31 9 26 -9 -5 -8 -1 4 12 9 11 14 23 10 26 -3 4 -2 7 3
7 6 0 11 32 12 71 1 40 5 76 8 80 3 5 -1 9 -8 9 -9 0 -9 3 -2 8 6 4 10 23 8
42 -1 19 3 38 9 42 8 6 9 10 2 16 -12 8 -13 22 -3 37 4 6 3 17 -2 25 -5 9 -5
19 2 27 7 9 7 13 -2 13 -10 0 -10 3 0 15 10 12 10 15 -1 15 -10 0 -10 3 -1 12
7 7 8 17 2 29 -6 10 -6 20 -2 23 5 3 8 24 8 47 -1 33 -5 43 -19 45 -24 3 -47
23 -47 41 0 8 4 12 8 9 4 -2 7 8 6 22 -1 15 3 37 7 49 5 13 5 22 1 21 -11 -4
-62 33 -57 41 2 4 5 24 7 44 1 21 7 37 13 37 5 0 3 5 -5 10 -12 8 -12 10 -1
10 11 0 11 3 1 15 -10 12 -15 13 -20 4 -12 -19 -45 -1 -46 26 -1 16 2 23 10
18 6 -3 6 -1 -1 8 -7 7 -13 23 -13 35 0 13 -4 26 -10 29 -5 3 -10 1 -10 -5 0
-6 -4 -9 -9 -5 -5 3 -12 -4 -16 -15 -3 -11 -11 -20 -17 -20 -6 0 -9 -3 -6 -6
9 -9 -45 -62 -57 -57 -13 4 -15 135 -2 144 4 3 1 12 -8 19 -9 7 -15 9 -13 4z
m-2763 -3490 c-17 -21 -31 -17 -17 5 7 11 16 17 20 14 5 -2 4 -11 -3 -19z m77
-7 c-3 -14 -13 -28 -22 -31 -25 -10 -26 -3 -1 31 25 35 32 35 23 0z m112 -7
c10 -17 10 -20 -3 -20 -8 0 -15 -3 -15 -7 0 -10 -52 -34 -59 -27 -3 3 1 14 8
26 10 16 10 19 -1 13 -7 -5 -4 1 7 13 26 27 47 27 63 2z"/>
</g>
</svg>
